<?xml version="1.0" encoding="iso-8859-1"?>
<!-- Generator: Adobe Illustrator 25.3.1, SVG Export Plug-In . SVG Version: 6.00 Build 0)  -->
<svg version="1.1" id="Layer_1" xmlns="http://www.w3.org/2000/svg" xmlns:xlink="http://www.w3.org/1999/xlink" x="0px" y="0px"
	 viewBox="0 0 100 100" style="enable-background:new 0 0 100 100;" xml:space="preserve">
<path style="fill:#FFFFFF;" d="M40.875,17.222c-3.582,0-6.553,2.456-7.403,5.774c-0.096,0-0.168-0.024-0.264-0.024
	c-4.229,0-7.667,3.438-7.667,7.667c0,0.575,0.072,1.138,0.204,1.677c-3.498,1.438-5.954,4.864-5.954,8.865
	c0,1.509,0.383,2.911,0.994,4.181c-2.875,1.653-4.828,4.72-4.828,8.278c0,3.989,2.444,7.415,5.918,8.853
	c-0.108,0.551-0.168,1.114-0.168,1.689c0,4.768,3.857,8.625,8.625,8.625c0.491,0,0.97-0.06,1.438-0.144
	c1.15,3.414,4.336,5.894,8.146,5.894c4.768,0,8.625-3.857,8.625-8.625V24.889C48.542,20.66,45.104,17.222,40.875,17.222z
	 M84.958,53.639c0-3.558-1.953-6.624-4.828-8.278c0.623-1.27,0.994-2.671,0.994-4.181c0-4.001-2.456-7.427-5.954-8.865
	c0.12-0.539,0.204-1.102,0.204-1.677c0-4.229-3.438-7.667-7.667-7.667c-0.096,0-0.18,0.024-0.264,0.024
	c-0.851-3.318-3.821-5.774-7.403-5.774c-4.229,0-7.667,3.426-7.667,7.667v45.042c0,4.768,3.857,8.625,8.625,8.625
	c3.809,0,6.996-2.48,8.146-5.894c0.467,0.084,0.946,0.144,1.438,0.144c4.768,0,8.625-3.857,8.625-8.625
	c0-0.575-0.06-1.138-0.168-1.689C82.515,61.054,84.958,57.628,84.958,53.639z"/>
</svg>
