<svg id="Layer_1" data-name="Layer 1" xmlns="http://www.w3.org/2000/svg" viewBox="0 0 55 52.36"><defs><style>.cls-1{fill:#fff;}</style></defs><path class="cls-1" d="M7221.15,7196.5a4.63,4.63,0,0,1,1.12.11,5.52,5.52,0,0,1,0,10.78,4.63,4.63,0,0,1-1.12.11h-44.06a4.76,4.76,0,0,1-1.13-.11,5.51,5.51,0,0,1,0-10.78,4.76,4.76,0,0,1,1.13-.11ZM7225,7212a1.81,1.81,0,0,1,.55,1.29v1.84a7.5,7.5,0,0,1-2.17,5.19,7.68,7.68,0,0,1-5.26,2.14h-37.14a7.38,7.38,0,0,1-7.43-7.33v-1.84a1.84,1.84,0,0,1,1.86-1.83h48.28A1.83,1.83,0,0,1,7225,7212Zm-49.78-19.91a4,4,0,0,1-1.33-1.07,3.89,3.89,0,0,1-.72-1.54,3.8,3.8,0,0,1,0-1.71c2.56-10.1,13.21-17.67,26-17.67s23.41,7.57,26,17.67a3.83,3.83,0,0,1-.7,3.25,4.93,4.93,0,0,1-1.33,1.07,3.91,3.91,0,0,1-1.66.37h-44.56A4,4,0,0,1,7175.17,7192.13Zm37.53-11.77a1.88,1.88,0,0,0-.55,1.32,1.79,1.79,0,0,0,.32,1,1.47,1.47,0,0,0,.84.69,3.48,3.48,0,0,0,1.07.11,1.93,1.93,0,0,0,1.47-1.47,3.48,3.48,0,0,0-.11-1.07,1.47,1.47,0,0,0-.69-.84,1.91,1.91,0,0,0-1-.42,2,2,0,0,0-1.32.65Zm-14.9-3.72a1.84,1.84,0,0,0-.55,1.31,1.82,1.82,0,0,0,.31,1,1.51,1.51,0,0,0,.84.69,3.81,3.81,0,0,0,1.07.1,1.77,1.77,0,0,0,1-.51,1.81,1.81,0,0,0,.51-1,3.85,3.85,0,0,0-.1-1.08,2,2,0,0,0-.69-.84,1.57,1.57,0,0,0-2.35.24Zm-14.91,3.72a1.87,1.87,0,0,0-.54,1.32,1.78,1.78,0,0,0,.31,1,1.47,1.47,0,0,0,.84.69,3.48,3.48,0,0,0,1.07.11A1.93,1.93,0,0,0,7186,7182a3.48,3.48,0,0,0-.11-1.07,1.47,1.47,0,0,0-.69-.84,1.91,1.91,0,0,0-1-.42,2,2,0,0,0-1.32.65Z" transform="translate(-7171.61 -7170.14)"/><path class="cls-1" d="M7184,7180.76l.54-.05.69,1.7-.24.32-1.84-1a2.88,2.88,0,0,1-2.17,3.06l1.9,1.45a25,25,0,0,1-.22-4,5.23,5.23,0,0,0,.06-1l.08-.33-.5,0c-.21.26.79,2.28,1.3,1,.09-.22.24-2.37.93-1.76s-.54,2-1,2.32l2.21.89a5.66,5.66,0,0,1,0-1.79c0-.26.22-1.47.52-1.56.61-.18,1.85,1,2.27,1.34a12.31,12.31,0,0,0,5,2.66,1.51,1.51,0,0,0,1.16-2.74l-1.67-1.08v2.59a26.07,26.07,0,0,1,7.67-2.88l-1.89-1.45a2.9,2.9,0,0,1-.5,1.94c-.16.22-.48.38-.6.59-.41.22-.18.44.69.67,0-.18,0-.35,0-.53a10.91,10.91,0,0,1,.16-2.49c.11-.55.28-1.89.74-2.26l-1.06.44c-.37,0,0,.18.08.31s.35.4.49.61.59,1.27.67,1.29l1-.8-.3-.15c-.15-.17-.46-.21-.58-.43,0,0-.22,0,0,0s.23,0,.29,0c1.65,1.26-.4,4.09.29,5.71.9,2.11,3.34.83,4.62-.08a2.56,2.56,0,0,1,2.82-.51,5.62,5.62,0,0,1,1.43.94l.62.56.27.25c.2.22.22.11.05-.34l1-1-.19.07,1.85,1.85a4.61,4.61,0,0,1,1.87-2.82l-2.2-.9a13.54,13.54,0,0,1,.39,4h3a4.62,4.62,0,0,0-.33-1.6c-.29-.75-.31-1.13-1.16-1.22s-.65.12-.88.92a12.67,12.67,0,0,1-.6,1.59l2.74.36c-.33-1.8-.57-3.6-.72-5.42l-1.9,1.45c1.15.39-.36,1.89-.76,2.21l2.51.66a7.08,7.08,0,0,1,.63-5.37h-2.59c.75,1.09,2.58,4.22.42,5l1.69.69a2.63,2.63,0,0,1,.16-2.93l-2.51-.66a2.93,2.93,0,0,1-.29,2.79c-1.05,1.63,1.55,3.13,2.59,1.51a5.79,5.79,0,0,0,.6-5.1c-.34-.95-1.74-1.62-2.51-.66a5.73,5.73,0,0,0-.63,6.56,1.51,1.51,0,0,0,1.69.69,4.72,4.72,0,0,0,3.1-3.74,7.79,7.79,0,0,0-1.72-5.68,1.51,1.51,0,0,0-2.59,0,10.23,10.23,0,0,0-.94,7.68,1.52,1.52,0,0,0,2.51.66c2.48-1.95,2.84-6.05-.56-7.23a1.51,1.51,0,0,0-1.9,1.45c.18,2.08.45,4.16.83,6.21a1.51,1.51,0,0,0,2.74.36c.8-1.76,2.47-5.58-.25-6.61a2.41,2.41,0,0,0-3,1.35,2.91,2.91,0,0,0-.13,1.91c.17.71.74,1.42.77,2.15a1.5,1.5,0,0,0,3,0,16.62,16.62,0,0,0-.5-4.81,1.51,1.51,0,0,0-2.2-.89,7.75,7.75,0,0,0-3.26,4.61c-.25,1,.73,2.28,1.85,1.85,3.51-1.37-.59-4.93-2.3-5.83a5.61,5.61,0,0,0-4.38-.51,6,6,0,0,0-1.54.82c-.21.16-1.17,1-1.34.93l.9.69c-.05-.06.41-2,.45-2.42a5.92,5.92,0,0,0-.31-2.54,3.67,3.67,0,0,0-3.57-2.6,3.06,3.06,0,0,0-3,2.8c0,1.7,1.46,3.1,3,3.58a2.2,2.2,0,0,0,2.95-2.53,7.24,7.24,0,0,0-2.84-4.28c-3.74-2.56-4.43,6-4.07,8s2.36,2.36,3.92,1.27a5.75,5.75,0,0,0,2.42-5,1.52,1.52,0,0,0-1.9-1.44,28.62,28.62,0,0,0-8.39,3.18,1.51,1.51,0,0,0,0,2.59l1.67,1.08,1.15-2.74c-3-.56-4.75-3.84-7.75-4.08-3.66-.3-4.14,4.52-3.72,7.12a1.53,1.53,0,0,0,2.21.9,5.24,5.24,0,0,0,2.59-4.05,3.56,3.56,0,0,0-2.36-3.85,3.65,3.65,0,0,0-4.07,2.05c-.68,1.35-1,3.65.16,4.85a2.42,2.42,0,0,0,4-.91,4.5,4.5,0,0,0-1.16-4.67,2.68,2.68,0,0,0-4.15,1.4c-.69,1.88-.36,4.39-.11,6.33a1.52,1.52,0,0,0,1.9,1.44,5.92,5.92,0,0,0,4.26-6.75c-.13-.87-1.13-1.15-1.85-1.05a2.26,2.26,0,0,0-1.85,1.77,1.52,1.52,0,0,0,.69,1.69,2.63,2.63,0,0,0,3.09-.42c1.45-1.28-.68-3.4-2.12-2.12Z" transform="translate(-7171.61 -7170.14)"/></svg>