<?xml version="1.0" encoding="iso-8859-1"?>
<!-- Generator: Adobe Illustrator 25.3.1, SVG Export Plug-In . SVG Version: 6.00 Build 0)  -->
<svg version="1.1" id="Layer_1" xmlns="http://www.w3.org/2000/svg" xmlns:xlink="http://www.w3.org/1999/xlink" x="0px" y="0px"
	 viewBox="0 0 100 100" style="enable-background:new 0 0 100 100;" xml:space="preserve">
<path style="fill:#FFFFFF;" d="M53.422,23.077c-0.93-3.37-5.79-3.527-6.844,0c-5.477,18.475-17.189,23.496-17.189,36.517
	c0,11.528,9.219,20.856,20.611,20.856s20.611-9.328,20.611-20.856C70.611,46.507,58.925,41.637,53.422,23.077z M50,72.955
	c-7.232,0-13.116-5.885-13.116-13.116c0-1.035,0.839-1.874,1.874-1.874s1.874,0.839,1.874,1.874c0,5.166,4.203,9.369,9.369,9.369
	c1.035,0,1.874,0.839,1.874,1.874S51.035,72.955,50,72.955z"/>
</svg>
